<?xml version="1.0" encoding="UTF-8"?><svg id="Warstwa_1" xmlns="http://www.w3.org/2000/svg" viewBox="0 0 418.70502 75.17149"><path d="M40.79184,72.32113H0l4.67665-8.33128H28.63908c1.05067,.972,2.14656,1.89638,3.27583,2.76594,2.68495,2.06797,5.66538,4.00252,8.87693,5.56533" style="fill:#005ca9;"/><path d="M49.77522,11.84313c-1.3175,1.10789-9.74177,17.49176,.62178,31.90306,2.92321,4.0668,7.19256,9.0246,12.19799,11.92636,5.20558,3.02332,8.6863,3.78571,10.91626,4.39324,3.93098,1.06965,10.02045,1.51039,17.86576,1.93688,6.35397,.34542,19.36197,.41689,21.63243,.41217l2.42292,.00952,5.57006,10.61133s-18.90211,.08332-27.68612-.39072c-9.88224-.53133-17.55843-1.09117-22.50671-2.43724-2.81124-.76239-7.19249-1.72967-13.75134-5.53436-6.30388-3.65703-12.76734-10.05622-16.12424-15.39995-8.0859-12.87938-6.0561-21.52759-4.9935-25.77309,2.30855-3.19716,5.28658-6.26811,8.50286-8.55048,2.33-1.67725,3.78564-2.3348,5.33187-3.10672" style="fill:#005ca9;"/><path d="M62.8597,71.65951c-2.39914,.45746-4.74107,.66947-6.92573,.66475-7.99065-.01192-15.51671-3.75707-21.72767-8.53863-7.45459-5.73925-12.90556-13.71797-14.285-22.40427-.20249-1.0125-.29308-2.037-.44314-3.47359-.55271-5.94886,.3026-13.43209,4.47656-20.58888,3.61173-6.18711,8.9889-11.54756,17.85624-15.25701,3.69992-1.54856,11.64055-3.29015,20.83666-.84339,9.6631,2.66118,18.10882,8.65533,23.53834,16.52689,0,0-8.32895-10.82814-22.58771-12.07177-.6433-.05242-1.28653-.08812-1.93455-.09764-7.04482-.14294-13.77992,2.2847-19.39055,6.3158-3.59028,2.54441-6.73749,5.7535-9.17706,9.44629-.13581,.20488-.56703,.84099-1.13639,1.85116l-.17159,.30253c-.11909,.21681-.24298,.44787-.36927,.69565-1.7296,3.3116-4.14779,9.23668-4.24071,16.72225-.12629,9.64165,4.19781,16.59116,5.81791,18.93548,.0405,.06195,4.062,2.77787,10.15147,3.93578,2.46581,.47171,4.79109,.55031,6.77087,.49789,1.67245,1.34367,3.43069,2.57778,5.25561,3.64038,2.95658,1.71295,5.50339,2.88751,7.68572,3.74035" style="fill:#005ca9;"/><path d="M78.40193,15.1897c5.25561,3.12337,12.82456,12.91276,13.16999,21.81346,.55983,8.49574-3.70465,16.79132-6.54926,20.84859-4.60998-.3335-8.10262-.74567-10.52794-1.40322-.75287-.20256-1.66053-.42649-2.73737-.76239,3.02085-2.77794,7.51174-8.01682,9.78932-16.0575,3.14481-11.22838,.0405-18.85449-3.14474-24.43894" style="fill:#005ca9;"/><path d="M145.3911,13.62732h11.22591V46.71679c0,10.92578,6.53261,17.48224,15.10454,17.48224,8.66725,0,15.10462-6.55646,15.10462-17.48224V13.62732h11.22831V49.09449c0,13.77272-10.32778,25.54429-26.33293,25.54429s-26.33045-11.77157-26.33045-25.54429V13.62732Z" style="fill:#005ca9;"/><polygon points="260.38031 73.35079 260.38031 13.62827 249.27102 13.62827 249.27102 50.89177 216.67951 13.62827 210.61149 13.62827 210.61149 73.24835 221.72071 73.24835 221.72071 36.14458 254.24075 73.35079 260.38031 73.35079" style="fill:#005ca9;"/><rect x="273.66205" y="13.62754" width="11.52851" height="59.62248" style="fill:#005ca9;"/><path d="M359.12995,43.43998c0-17.52271-14.34454-31.72675-32.0459-31.72675-17.69672,0-32.04126,14.20404-32.04126,31.72675s14.34454,31.73151,32.04126,31.73151c6.73737,0,12.97693-2.06561,18.13733-5.57495l5.22693,5.22705,7.30463-7.30927-5.03418-5.03882c4.02881-5.29846,6.41119-11.88824,6.41119-19.03552Zm-14.21118,11.23071l-6.8924-6.88995-7.31152,7.30688,7.04242,7.04242c-3.12347,1.95361-6.76617,3.08044-10.67322,3.08044-11.49292,0-20.80579-9.7464-20.80579-21.77051,0-12.02643,9.31287-21.77057,20.80579-21.77057,11.49756,0,20.81042,9.74414,20.81042,21.77057,0,4.10962-1.09119,7.95007-2.97571,11.23071Z" style="fill:#005ca9; fill-rule:evenodd;"/><path d="M393.30121,13.62638h-7.72864l-26.06598,59.62244h11.95978l4.6933-11.22595h25.70166l4.54089,11.22595h12.3028l-25.40381-59.62244Zm-13.0437,38.59277l8.95544-21.44653,8.6767,21.44653h-17.63214Z" style="fill:#005ca9;"/></svg>